<?xml version="1.0" encoding="utf-8"?>
<!-- Generator: Adobe Illustrator 25.4.1, SVG Export Plug-In . SVG Version: 6.00 Build 0)  -->
<svg version="1.1" id="Warstwa_1" xmlns="http://www.w3.org/2000/svg" xmlns:xlink="http://www.w3.org/1999/xlink" x="0px" y="0px"
	 viewBox="0 0 132.9 144.6" style="enable-background:new 0 0 132.9 144.6;" xml:space="preserve">
<style type="text/css">
	.st0{fill:#FFFFFF;}
	.st1{fill:none;stroke:#FFFFFF;}
</style>
<g id="atom" transform="translate(-4.966 4.839)">
	<path id="Path_10" class="st0" d="M135.4,99.6c3.9-9-0.8-21.5-12.9-34.5c0.6-0.8,1.1-1.5,1.7-2.3c4.9,1.1,9.7-1.9,10.8-6.8
		c0.8-3.4-0.5-7-3.3-9.2c1-5.1,0.5-9.5-1.7-13.3c-2.5-4.3-6.8-7.2-12.9-8.7c-6-1.3-12.1-1.5-18.1-0.5C93.8,7.5,85.3-2.8,75.5-4
		C64.4-5.3,53.7,5.3,46.6,24.5c-1.1-0.2-2.2-0.4-3.3-0.5c-1.2-4.8-6.2-7.7-11-6.5c-3.1,0.8-5.5,3.2-6.4,6.2
		C16.5,25,10.1,29,7.5,35.3c-2.6,6.1-1.3,13.7,3.5,22c2.7,4.5,5.8,8.7,9.4,12.4c-3.8,4.7-6.7,10.2-8.6,16c-1.7,6-1.4,11.2,1.1,15.5
		c2.5,4.3,6.8,7.2,12.9,8.7c6,1.3,12.1,1.5,18.1,0.5c0.4,1.2,0.7,2.3,1.1,3.5c-4,3-4.8,8.6-1.8,12.6c2.3,3.1,6.3,4.4,10,3.2
		c4.2,5.4,9,8.5,14.1,9.1c11.1,1.3,21.8-9.3,28.9-28.5C116.4,113.9,131,109.9,135.4,99.6z M131.2,97.9c-3.4,8-16.2,11.1-33.5,8.2
		c2.2-7,3.8-14.2,4.8-21.5c6.2-4.7,12-10,17.1-15.9C129.9,79.9,134.3,90.7,131.2,97.9L131.2,97.9z M47.1,105.5
		c-1.4-5.3-2.4-10.7-3-16.2c4.6,3,9.4,5.7,14.3,8.2c2.1,1.1,4.2,2.1,6.4,3C59.1,102.6,53.2,104.3,47.1,105.5L47.1,105.5z M26.4,69.5
		c4-4.7,8.4-8.9,13.2-12.8c-0.2,2.3-0.4,4.7-0.6,7c-0.3,5.5-0.3,11-0.1,16.4C34.5,76.9,30.3,73.3,26.4,69.5L26.4,69.5z M95.7,29.5
		c1.4,5.3,2.4,10.7,3,16.2c-4.6-3-9.4-5.7-14.3-8.2c-2.1-1.1-4.2-2.1-6.4-3C83.7,32.3,89.6,30.6,95.7,29.5L95.7,29.5z M43.5,64
		c0.2-3.8,0.6-7.5,1-11.2c8.6-6.3,17.8-11.7,27.6-15.9c3.4,1.4,6.8,3,10.2,4.7c5.8,2.9,11.4,6.2,16.8,9.9c0.5,6.5,0.5,13,0.1,19.5
		c-0.2,3.8-0.6,7.5-1,11.2c-4.3,3.2-8.7,6.1-13.4,8.7c-4.6,2.7-9.4,5.1-14.2,7.2c-3.4-1.4-6.8-3-10.2-4.7
		c-5.8-2.9-11.4-6.2-16.8-9.9C43.2,77,43.1,70.5,43.5,64L43.5,64z M45.5,46.6c1-5.7,2.3-11.4,4.1-16.9c5.7,1.2,11.3,2.9,16.7,4.9
		c-3.6,1.7-7.2,3.6-10.7,5.6C52.1,42.2,48.7,44.3,45.5,46.6L45.5,46.6z M116.4,65.4c-4,4.7-8.4,8.9-13.2,12.8c0.2-2.3,0.4-4.7,0.6-7
		c0.3-5.5,0.3-11,0.1-16.4C108.3,58,112.5,61.6,116.4,65.4L116.4,65.4z M97.4,88.3c-1,5.7-2.3,11.4-4.1,16.9
		c-5.7-1.2-11.3-2.9-16.7-4.9c3.6-1.7,7.2-3.6,10.7-5.6C90.7,92.8,94.1,90.6,97.4,88.3L97.4,88.3z M126.1,35.9
		c1.5,2.8,2,6.1,1.3,9.2c-4.9-0.7-9.5,2.7-10.2,7.7c-0.4,3,0.7,5.9,2.9,7.9c-0.3,0.4-0.5,0.8-0.8,1.1c-4.9-4.7-10.2-9.1-15.8-13
		c-0.6-6.8-1.7-13.5-3.3-20.2C113.1,27.2,122.5,29.8,126.1,35.9z M75,0.5c7.7,0.9,14.9,10.1,19.4,24.7c-7.7,1.5-15.1,3.8-22.3,6.8
		c-6.8-2.8-13.8-5-21-6.6C57.3,8.9,66.4-0.6,75,0.5z M11.6,37.1c2.4-5.6,8.7-7.9,14.2-8.7c1.1,4.8,6,7.9,10.8,6.7
		c3.2-0.8,5.8-3.3,6.7-6.5c0.6,0.1,1.2,0.2,1.8,0.3c-2.2,7-3.8,14.2-4.8,21.5c-6.2,4.7-12,10-17.1,15.9C12.9,55,8.6,44.2,11.6,37.1z
		 M16.8,99c-3.5-6.1-1.1-15.5,6.8-26c4.9,4.7,10.2,9.1,15.8,13c0.6,6.8,1.7,13.5,3.3,20.2C29.7,107.7,20.3,105.2,16.8,99z
		 M67.8,134.5c-3.8-0.5-7.5-2.9-10.8-7.1c3.4-3.6,3.2-9.3-0.5-12.7c-2-1.8-4.7-2.7-7.3-2.3c-0.3-0.8-0.6-1.6-0.8-2.5
		c7.7-1.5,15.1-3.8,22.3-6.8c6.8,2.8,13.8,5,21,6.6C85.5,126,76.5,135.5,67.8,134.5L67.8,134.5z"/>
	<g id="dog" transform="translate(73.935 66.44)">
		<path id="Path_15" class="st0" d="M14.9-10.9c-1.9-2.4-4.8-5.3-7.6-5.3c-0.8,0-1.7,0.6-2.9,1.7c-2.2-0.9-4.6-1.5-7-1.7
			c-2.4,0.2-4.8,0.7-7,1.7c-1.2-1.1-2-1.7-2.9-1.7c-2.8,0-5.6,2.9-7.6,5.3c-1.4,1.8-3.7,5.2-3.7,6.6c0,2.7,0.1,3.9,2.2,6.7
			c1.6,2.2,1.8,5.4,2.9,7.1c0.6,1.1,1.9,1.6,3.1,1.3c1.3-0.3,2.1-1.4,2.4-3.1c0.8,1,1.3,2.4,1.3,3.7c0.1,2.5,4.3,6.7,9.2,6.7
			s9.1-4.3,9.2-6.7c0-1.3,0.4-2.7,1.2-3.7C8.3,9.5,9.2,11,11.1,11c3.5,0,2.9-5.4,5.2-8.5c2.2-2.9,2.2-4.1,2.2-6.7
			C18.6-5.7,16.3-9.1,14.9-10.9L14.9-10.9z M-2.5,8.3c-0.7,0-1.5-1-1.8-1.7c1.2-0.4,2.5-0.4,3.7,0C-1,7.2-1.8,8.3-2.5,8.3z
			 M-2.5,13.6c0.9,0.7,2,1.1,3.1,1.2c-2,1.1-4.3,1.1-6.3,0C-4.5,14.6-3.5,14.2-2.5,13.6L-2.5,13.6z M14.2,0.9
			c-2.1,2.8-2.4,6.8-3.2,7.4c-0.5,0-0.6-1.5-0.7-2c-0.2-2.4,0.3-5.9,0.3-8c0-3.6-2.7-8.9-2.8-9.2c-0.3-0.7-1.1-0.9-1.8-0.6
			s-0.9,1.1-0.6,1.8l0,0C6.2-8.2,8-4.1,8-1.6C8-0.2,7.8,2,7.7,4.1C7,4.7,4.1,7.4,4.1,10.9c0,1.6-4.6,1.6-5.4,0
			c0-0.1-0.1-0.1-0.1-0.2C0.4,10,1.8,8.3,2.1,6.3c0-3.5-9.2-3.5-9.2,0c0.3,2,1.7,3.7,3.6,4.5c-0.1,0.1-0.1,0.1-0.1,0.2
			c-0.8,1.6-5.4,1.6-5.4,0c0-3.5-2.9-6.2-3.6-6.8c-0.1-2-0.3-4.4-0.3-5.7c0-2.4,1.8-6.6,2.5-8c0.3-0.7,0.1-1.4-0.6-1.8
			s-1.4-0.1-1.8,0.6l0,0c-0.1,0.2-2.8,5.6-2.8,9.2c0,2.1,0.5,5.6,0.3,8c0,0.5-0.2,1.9-0.7,2c-0.8-0.7-1.1-4.7-3.2-7.4
			C-21-1.4-21-2-21-4.2c0.8-1.9,1.9-3.7,3.3-5.3c2-2.5,3.9-4,5.2-4c0.7,0.5,1.3,1,1.8,1.6c0.5,0.5,1.3,0.5,1.8,0
			c2-0.9,4.2-1.4,6.4-1.6c2.2,0.2,4.3,0.7,6.4,1.6c0.5,0.5,1.3,0.5,1.8,0c0.5-0.6,1.2-1.1,1.8-1.6c1.3,0.1,3.2,1.6,5.2,4
			c1.3,1.6,2.5,3.4,3.3,5.3C15.9-2,15.9-1.4,14.2,0.9z"/>
		<circle id="Ellipse_1" class="st1" cx="-9" cy="-2.7" r="1.8"/>
		<circle id="Ellipse_2" class="st1" cx="3.9" cy="-2.7" r="1.8"/>
	</g>
</g>
</svg>
