<?xml version="1.0" encoding="utf-8"?>
<!-- Generator: Adobe Illustrator 25.4.1, SVG Export Plug-In . SVG Version: 6.00 Build 0)  -->
<svg version="1.1" id="Warstwa_1" xmlns="http://www.w3.org/2000/svg" xmlns:xlink="http://www.w3.org/1999/xlink" x="0px" y="0px"
	 viewBox="0 0 123 127.7" style="enable-background:new 0 0 123 127.7;" xml:space="preserve">
<style type="text/css">
	.st0{fill:#FFFFFF;}
</style>
<g id="Group_16" transform="translate(0 8.831)">
	<path id="Path_12" class="st0" d="M80.7,29.2c-8,1.7-15.8-3.4-17.5-11.4S66.5,2,74.5,0.3c8-1.7,15.8,3.4,17.5,11.4
		C93.8,19.7,88.7,27.5,80.7,29.2C80.7,29.2,80.7,29.2,80.7,29.2z"/>
	<path id="Path_13" class="st0" d="M1.6,93.4l6.6-2.6l10.9-19.3l14-10.3l6.3,3.7l6.5-2.4c0.9-2.1,3-3.5,5.3-3.5
		c13.3,0,21.1-9.5,21.7-18.6c0.4-4.6,4.1-8.4,7.8-10.2c1-0.5,2-0.9,3.1-1.1c1.1-0.2,2.2-0.3,3.4-0.3h0c5.1,0.1,11.1,3,12.4,8.9
		l6.8,31.9c0.4,1.8,0.3,3.7-0.3,5.4c-0.1,0.3-7.2,17.8-7.2,17.8h16.1c4.3,0,7.9,3.4,7.9,7.7c0,4.3-3.4,7.9-7.7,7.9
		c-0.1,0-0.1,0-0.2,0H87.5c-4.3,0-7.8-3.5-7.8-7.8c0-1,0.2-2,0.6-2.9l4.4-10.8l-9.5,2.7l3.6,19.7c0.9,4.2-1.9,8.4-6.1,9.2
		c-4.2,0.9-8.4-1.9-9.2-6.1c0-0.1,0-0.2,0-0.3l-4.9-26.7c-0.7-4,1.7-7.8,5.5-8.9l15.4-4.4l-2.5-11.7c-5.7,6.6-14.2,10-25.5,10
		c-1.3,0-2.6-0.5-3.6-1.3l-5.5,2L27.3,99.6l0.6,15.4c0.1,1.9-1.4,3.4-3.2,3.5c0,0-0.1,0-0.1,0c-1.8,0-3.3-1.4-3.4-3.2l-0.4-9.8
		L19.2,116c-0.3,1.7-1.7,2.9-3.3,2.9c-0.2,0-0.3,0-0.5,0c-1.8-0.3-3.1-2-2.8-3.9l2.6-17.3l-4.5-2.6L3.4,98c-0.3,0.1-0.6,0.2-0.9,0.2
		c-1.4,0-2.5-1.1-2.5-2.5C0,94.7,0.6,93.8,1.6,93.4L1.6,93.4z"/>
	<path id="Path_14" class="st0" d="M31.8,54c-0.4,0.4-0.9,0.8-1.3,1.2c-0.3,0.3,1.5,4.5,1.5,4.5l-13.7,9.9c-0.9-1.4-1.8-2.9-2.8-4.3
		c-1.9-3.2-4.1-6.3-6.3-9.3c-0.7-0.8-1.4-1.5-2.2-2.2c-3.7-2.9-1.4-4.9-0.8-5.3c1.5-0.8,3.3-0.8,4.7,0.1c0.9,0.5,1.7,0.9,2.6,1.4
		c0.2,0.1,0.5,0.1,0.7-0.1c0.4-0.3,0.8-0.6,1.3-0.8c2.5-1.5,4.9-1.2,7.5-2.4c0.9-0.4,6.5-6.8,9.4-5.2c3.2,1.7,3.5,5.2,2.4,8.1
		C34.1,51.3,33.1,52.8,31.8,54z"/>
	<path id="Path_28" class="st0" d="M79.2,0.3c0,0,1-9.4,7.3-9.1s10.1,11.5,19.1,9.1c0.5,1.9-7,7.5-11.6,4.2S89.5-1,86.4-1.3
		s-3.8,3.5-3.8,3.5L79.2,0.3z"/>
</g>
</svg>
