<?xml version="1.0" encoding="utf-8"?>
<!-- Generator: Adobe Illustrator 25.4.1, SVG Export Plug-In . SVG Version: 6.00 Build 0)  -->
<svg version="1.1" id="Warstwa_1" xmlns="http://www.w3.org/2000/svg" xmlns:xlink="http://www.w3.org/1999/xlink" x="0px" y="0px"
	 viewBox="0 0 124.6 124.6" style="enable-background:new 0 0 124.6 124.6;" xml:space="preserve">
<style type="text/css">
	.st0{fill:#FFFFFF;}
	.st1{fill:none;stroke:#FFFFFF;stroke-width:3;}
	.st2{fill:none;stroke:#FFFFFF;stroke-width:2.9994;stroke-miterlimit:3.9992;}
	.st3{fill:none;stroke:#FFFFFF;stroke-width:2.9996;stroke-miterlimit:3.9995;}
</style>
<g id="criminology" transform="translate(0 0)">
	<g id="Page-1_51_" transform="translate(-0.001 0)">
		<g id="_x30_52---Criminology">
			<path id="Shape_213_" class="st0" d="M102.2,87.9c17.6-25.5,11.2-60.4-14.3-78S27.5-1.2,9.9,24.2s-11.2,60.4,14.3,78
				c19.2,13.2,44.5,13.2,63.7,0l19.4,19.4c3.9,4,10.3,4.1,14.3,0.1c4-3.9,4.1-10.3,0.1-14.3c0,0-0.1-0.1-0.1-0.1L102.2,87.9z
				 M4.3,56.2c0-28.6,23.2-51.9,51.9-51.9S108,27.5,108,56.2S84.8,108,56.2,108c0,0,0,0,0,0C27.5,108,4.3,84.8,4.3,56.2z
				 M118.7,118.7c-2.4,2.3-6.1,2.3-8.5,0l-19-19c3.1-2.5,6-5.4,8.5-8.5l19,19C121,112.6,121,116.4,118.7,118.7
				C118.7,118.7,118.7,118.7,118.7,118.7L118.7,118.7z"/>
		</g>
	</g>
	<g id="pawprint" transform="translate(26.567 25.912)">
		<g id="Group_17" transform="translate(-3 -1)">
			<path id="Path_16" class="st1" d="M44.6,29.1c-4.4-6.8-13.4-8.8-20.2-4.4c-1.8,1.1-3.3,2.6-4.4,4.4l-6.5,10.2
				c-2.8,4.3-1.5,10,2.8,12.8c2.6,1.7,5.9,1.9,8.7,0.7l0.1-0.1c4.6-2,9.9-2,14.5,0.1c1.2,0.5,2.4,0.8,3.7,0.8c0.7,0,1.4-0.1,2.1-0.2
				c5-1.1,8.1-6.1,7-11.1c-0.2-1-0.7-2-1.2-2.9L44.6,29.1z"/>
			<path id="Path_17" class="st1" d="M15.7,29.9c2-0.8,3.5-2.4,4.1-4.4c0.7-2.1,0.6-4.3-0.2-6.3c-0.8-2-2.2-3.7-4.1-4.8
				c-1.8-1.1-4-1.2-6-0.5c-3.9,1.5-5.7,6.3-4,10.7c1.2,3.3,4.2,5.6,7.7,5.7C14.1,30.3,15,30.2,15.7,29.9L15.7,29.9z"/>
			<path id="Path_18" class="st2" d="M30.7,21.1c4.8,0.4,9.2-3.7,9.7-9.2S37.3,1.4,32.5,1s-9.2,3.7-9.7,9.3S25.9,20.6,30.7,21.1z"/>
			<path id="Path_19" class="st3" d="M46.5,28.6L46.5,28.6c0.7,0.4,1.4,0.7,2.1,0.8c3.8,0.6,7.6-1.2,9.4-4.6c1.2-2,1.6-4.3,1.3-6.6
				c-0.6-4-4.3-6.9-8.4-6.3c-0.5,0.1-1.1,0.2-1.6,0.4c-2.2,0.8-4,2.3-5.2,4.3C41.6,21,42.6,26.4,46.5,28.6L46.5,28.6z"/>
		</g>
	</g>
</g>
</svg>
