<?xml version="1.0" encoding="utf-8"?>
<!-- Generator: Adobe Illustrator 25.4.1, SVG Export Plug-In . SVG Version: 6.00 Build 0)  -->
<svg version="1.1" id="Warstwa_1" xmlns="http://www.w3.org/2000/svg" xmlns:xlink="http://www.w3.org/1999/xlink" x="0px" y="0px"
	 viewBox="0 0 273 137" style="enable-background:new 0 0 273 137;" xml:space="preserve">
<style type="text/css">
	.st0{fill:#FFFFFF;}
	.st1{fill:none;stroke:#FFFFFF;stroke-width:5;}
	.st2{fill:#FFFFFF;stroke:#FFFFFF;}
	.st3{fill:none;stroke:#FFFFFF;stroke-linecap:round;}
	.st4{fill:#707070;}
	.st5{font-family:'SegoeUI-Bold';}
	.st6{font-size:27px;}
	.st7{fill:none;stroke:#FFFFFF;}
</style>
<g id="Group_206" transform="translate(-823.5 -411)">
	<path id="Polygon_3" class="st0" d="M955.8,420.1c1.6-2.9,5.3-3.9,8.2-2.2c0.9,0.5,1.7,1.3,2.2,2.2l17.7,30.9
		c1.6,2.9,0.6,6.5-2.2,8.2c-0.9,0.5-1.9,0.8-3,0.8h-35.3c-3.3,0-6-2.7-6-6c0-1,0.3-2.1,0.8-3L955.8,420.1z"/>
	<path id="Path_69" class="st1" d="M961.2,443v99.9"/>
	<path id="Path_70" class="st2" d="M946.5,547.5l-6.5-21.2l14.4,18.1l14.4-32.2c-0.2,0.1,0,32.2,0,32.2l11.2-8.5
		c0-0.4-3.2,11.6-3.2,11.6"/>
	<path id="Path_71" class="st3" d="M874.7,516.7c0,0,56.9-33.8,80,26.2"/>
	<path id="Path_72" class="st3" d="M1000.7,519.1c0,0-41.4-0.8-37.1,25"/>
	<text transform="matrix(1 0 0 1 957 453)" class="st4 st5 st6">!</text>
	<line id="Line_2" class="st7" x1="823.5" y1="547.5" x2="1096.5" y2="547.5"/>
</g>
</svg>
