<?xml version="1.0" encoding="utf-8"?>
<!-- Generator: Adobe Illustrator 25.4.1, SVG Export Plug-In . SVG Version: 6.00 Build 0)  -->
<svg version="1.1" id="Warstwa_1" xmlns="http://www.w3.org/2000/svg" xmlns:xlink="http://www.w3.org/1999/xlink" x="0px" y="0px"
	 viewBox="0 0 24.2 29.7" style="enable-background:new 0 0 24.2 29.7;" xml:space="preserve">
<g>
	<g id="Group_57" transform="translate(6.88 23.628)">
		<g id="Group_56" transform="translate(0)">
			<path id="Path_55" d="M13.1,0H-2.6c-0.3-0.1-0.6,0.2-0.6,0.5S-3.1,1-2.8,1.1c0.1,0,0.1,0,0.2,0h15.7c0.3,0.1,0.6-0.2,0.6-0.5
				S13.6,0.1,13.3,0C13.2,0,13.1,0,13.1,0z"/>
		</g>
	</g>
	<g id="Group_59" transform="translate(6.88 20.331)">
		<g id="Group_58" transform="translate(0)">
			<path id="Path_56" d="M13.1,0H-2.6c-0.3-0.1-0.6,0.2-0.6,0.5S-3.1,1-2.8,1.1c0.1,0,0.1,0,0.2,0h15.7c0.3,0.1,0.6-0.2,0.6-0.5
				S13.6,0.1,13.3,0C13.2,0,13.1,0,13.1,0z"/>
		</g>
	</g>
	<g id="Group_61" transform="translate(6.88 17.034)">
		<g id="Group_60" transform="translate(0)">
			<path id="Path_57" d="M13.1,0H-2.6c-0.3-0.1-0.6,0.2-0.6,0.5S-3.1,1-2.8,1.1c0.1,0,0.1,0,0.2,0h15.7c0.3,0.1,0.6-0.2,0.6-0.5
				S13.6,0.1,13.3,0C13.2,0,13.1,0,13.1,0z"/>
		</g>
	</g>
	<g id="Group_63" transform="translate(6.88 13.737)">
		<g id="Group_62" transform="translate(0)">
			<path id="Path_58" d="M13.1,0H-2.6c-0.3-0.1-0.6,0.2-0.6,0.5S-3.1,1-2.8,1.1c0.1,0,0.1,0,0.2,0h15.7c0.3,0.1,0.6-0.2,0.6-0.5
				S13.6,0.1,13.3,0C13.2,0,13.1,0,13.1,0z"/>
		</g>
	</g>
	<g id="Group_65" transform="translate(6.88 10.44)">
		<g id="Group_64" transform="translate(0)">
			<path id="Path_59" d="M13.1,0H-2.6c-0.3-0.1-0.6,0.2-0.6,0.5S-3.1,1-2.8,1.1c0.1,0,0.1,0,0.2,0h15.7c0.3,0.1,0.6-0.2,0.6-0.5
				S13.6,0.1,13.3,0C13.2,0,13.1,0,13.1,0z"/>
		</g>
	</g>
	<path d="M24.2,8.2c0,0,0-0.1,0-0.1c0,0,0,0,0-0.1c0-0.1-0.1-0.1-0.1-0.2l-7.7-7.7c0,0-0.1-0.1-0.2-0.1c0,0,0,0-0.1,0
		c0,0-0.1,0-0.1,0c0,0,0,0,0,0H0.5C0.2,0,0,0.2,0,0.5v1.7v1.1v1.5v24.3c0,0.3,0.2,0.5,0.5,0.5h19.2h2.9l0,0h1c0.3,0,0.5-0.2,0.6-0.5
		L24.2,8.2C24.2,8.2,24.2,8.2,24.2,8.2z M16.5,1.9l5.8,5.8h-5.8V1.9z M1.1,28.6V1.1h14.3v7.1c0,0.3,0.2,0.5,0.5,0.5h7.1l0,19.8H1.1z
		"/>
</g>
</svg>
