<?xml version="1.0" encoding="utf-8"?>
<!-- Generator: Adobe Illustrator 25.4.1, SVG Export Plug-In . SVG Version: 6.00 Build 0)  -->
<svg version="1.1" id="Warstwa_1" xmlns="http://www.w3.org/2000/svg" xmlns:xlink="http://www.w3.org/1999/xlink" x="0px" y="0px"
	 viewBox="0 0 111.9 130.6" style="enable-background:new 0 0 111.9 130.6;" xml:space="preserve">
<style type="text/css">
	.st0{fill:#FFFFFF;}
	.st1{fill:none;stroke:#FFFFFF;stroke-width:4;stroke-linecap:round;stroke-linejoin:round;}
</style>
<g id="Group_54" transform="translate(4759.892 1751)">
	<g id="document" transform="translate(-4748.413 -1751)">
		<g id="Group_21" transform="translate(25.143 86.347)">
			<g id="Group_20" transform="translate(0)">
				<path id="Path_30" class="st0" d="M59.8,0H2.4C1.3-0.2,0.2,0.5,0,1.7S0.6,3.8,1.7,4c0.2,0,0.5,0,0.7,0h57.4
					c1.1,0.2,2.2-0.5,2.4-1.7S61.6,0.2,60.5,0C60.3,0,60.1,0,59.8,0L59.8,0z"/>
			</g>
		</g>
		<g id="Group_25" transform="translate(25.143 74.299)">
			<g id="Group_24" transform="translate(0)">
				<path id="Path_32" class="st0" d="M59.8,0H2.4C1.3-0.2,0.2,0.5,0,1.7S0.6,3.8,1.7,4c0.2,0,0.5,0,0.7,0h57.4
					c1.1,0.2,2.2-0.5,2.4-1.7S61.6,0.2,60.5,0C60.3,0,60.1,0,59.8,0L59.8,0z"/>
			</g>
		</g>
		<g id="Group_29" transform="translate(25.143 62.25)">
			<g id="Group_28" transform="translate(0)">
				<path id="Path_34" class="st0" d="M59.8,0H2.4C1.3-0.2,0.2,0.5,0,1.7C-0.2,2.8,0.6,3.8,1.7,4c0.2,0,0.5,0,0.7,0h57.4
					c1.1,0.2,2.2-0.5,2.4-1.7c0.2-1.1-0.5-2.2-1.7-2.4C60.3,0,60.1,0,59.8,0L59.8,0z"/>
			</g>
		</g>
		<g id="Group_33" transform="translate(25.143 50.202)">
			<g id="Group_32" transform="translate(0)">
				<path id="Path_36" class="st0" d="M59.8,0H2.4C1.3-0.2,0.2,0.5,0,1.7C-0.2,2.8,0.6,3.8,1.7,4c0.2,0,0.5,0,0.7,0h57.4
					c1.1,0.2,2.2-0.5,2.4-1.7c0.2-1.1-0.5-2.2-1.7-2.4C60.3,0,60.1,0,59.8,0L59.8,0z"/>
			</g>
		</g>
		<g id="Group_37" transform="translate(25.143 38.153)">
			<g id="Group_36" transform="translate(0)">
				<path id="Path_38" class="st0" d="M59.8,0H2.4C1.3-0.2,0.2,0.5,0,1.7C-0.2,2.8,0.6,3.8,1.7,4c0.2,0,0.5,0,0.7,0h57.4
					c1.1,0.2,2.2-0.5,2.4-1.7c0.2-1.1-0.5-2.2-1.7-2.4C60.3,0,60.1,0,59.8,0L59.8,0z"/>
			</g>
		</g>
		<g id="Group_39" transform="translate(0)">
			<g id="Group_38">
				<path id="Path_39" class="st0" d="M100.4,30c0-0.2,0-0.3-0.1-0.5c0-0.1,0-0.1-0.1-0.2c-0.1-0.2-0.2-0.4-0.4-0.6L71.7,0.6
					c-0.2-0.2-0.4-0.3-0.6-0.4c-0.1,0-0.1,0-0.2-0.1C70.8,0.1,70.6,0,70.4,0c0,0-0.1,0-0.1,0H14.1c-1.1,0-2,0.9-2,2v6H2
					c-1.1,0-2,0.9-2,2v0v108.4c0,1.1,0.9,2,2,2h0h84.3c1.1,0,2-0.9,2-2v-10h10c1.1,0,2-0.9,2-2V30.1C100.4,30.1,100.4,30,100.4,30z
					 M72.3,6.9l21.3,21.3H72.3V6.9z M84.3,116.5H4V12h8v94.4c0,1.1,0.9,2,2,2h0h70.3L84.3,116.5z M96.4,104.4H16.1V4h52.2v26.1
					c0,1.1,0.9,2,2,2l0,0h26.1L96.4,104.4z"/>
			</g>
		</g>
	</g>
	<path id="Path_49" class="st1" d="M-4748.4-1736.3h-9.5v113.8h87.1v-9"/>
</g>
</svg>
