<?xml version="1.0" encoding="utf-8"?>
<!-- Generator: Adobe Illustrator 25.4.1, SVG Export Plug-In . SVG Version: 6.00 Build 0)  -->
<svg version="1.1" id="Warstwa_1" xmlns="http://www.w3.org/2000/svg" xmlns:xlink="http://www.w3.org/1999/xlink" x="0px" y="0px"
	 viewBox="0 0 132.3 115.7" style="enable-background:new 0 0 132.3 115.7;" xml:space="preserve">
<style type="text/css">
	.st0{fill:#FFFFFF;}
</style>
<g id="history" transform="translate(0 -34.445)">
	<path id="Path_47" class="st0" d="M66.1,67.5l0,28.9c0,1.1,0.4,2.1,1.2,2.9L88,120l5.8-5.8L74.4,94.7l0-27.2H60.9l9.3-11.6
		l10.7,11.6"/>
	<path id="Path_48" class="st0" d="M74.4,34.4C45.7,34.5,21.3,55.6,17.2,84H0l20.7,20.7L41.3,84H25.5c4.6-27,30.2-45.1,57.2-40.5
		s45.1,30.2,40.5,57.2S93,145.8,66,141.2c-12.2-2.1-23.1-8.6-30.7-18.4l-6.5,5.1c19.7,25.2,56,29.7,81.2,10s29.7-56,10-81.2
		C109.1,42.7,92.2,34.4,74.4,34.4z"/>
</g>
</svg>
