<?xml version="1.0" encoding="utf-8"?>
<!-- Generator: Adobe Illustrator 25.4.1, SVG Export Plug-In . SVG Version: 6.00 Build 0)  -->
<svg version="1.1" id="Warstwa_1" xmlns="http://www.w3.org/2000/svg" xmlns:xlink="http://www.w3.org/1999/xlink" x="0px" y="0px"
	 viewBox="0 0 155.5 129.7" style="enable-background:new 0 0 155.5 129.7;" xml:space="preserve">
<style type="text/css">
	.st0{fill:#FFFFFF;}
</style>
<g id="group" transform="translate(6.425 -38.84)">
	<g id="Group_43" transform="translate(120.469 116.021)">
		<g id="Group_42" transform="translate(0 0)">
			<path id="Path_41" class="st0" d="M10,0H0c1,2.9,1.6,5.9,1.6,8.9v37.7c0,1.3-0.2,2.5-0.6,3.7h16.5c6.2,0,11.2-5,11.2-11.2V18.6
				C28.6,8.3,20.2,0,10,0z"/>
		</g>
	</g>
	<g id="Group_45" transform="translate(0 108.887)">
		<g id="Group_44">
			<path id="Path_42" class="st0" d="M32,10.6C32,7,32.7,3.4,33.9,0H22.1C9.9,0,0,9.9,0,22.1v24.4c0,7.3,5.9,13.2,13.2,13.2h19.6
				c-0.5-1.4-0.8-2.9-0.8-4.4L32,10.6z"/>
		</g>
	</g>
	<g id="Group_47" transform="translate(40.875 97.384)">
		<g id="Group_46" transform="translate(0 0)">
			<path id="Path_43" class="st0" d="M49.1,0h-27C9.9,0,0,9.9,0,22.1v44.7c0,2.4,2,4.4,4.4,4.4h62.4c2.4,0,4.4-2,4.4-4.4V22.1
				C71.2,9.9,61.3,0,49.1,0z"/>
		</g>
	</g>
	<g id="Group_49" transform="translate(49.923 38.84)">
		<g id="Group_48" transform="translate(0 0)">
			<path id="Path_44" class="st0" d="M26.6,0C11.9,0,0,11.9,0,26.6c0,14.7,11.9,26.5,26.6,26.5c14.7,0,26.5-11.9,26.5-26.5
				C53.1,11.9,41.2,0,26.6,0z"/>
		</g>
	</g>
	<g id="Group_51" transform="translate(9.991 63.59)">
		<g id="Group_50">
			<path id="Path_45" class="st0" d="M19.9,0C8.9,0,0,8.9,0,19.9c0,11,8.9,19.8,19.9,19.8c11,0,19.8-8.9,19.8-19.8
				C39.7,8.9,30.8,0,19.9,0z"/>
		</g>
	</g>
	<g id="Group_53" transform="translate(107.157 77.855)">
		<g id="Group_52" transform="translate(0 0)">
			<path id="Path_46" class="st0" d="M16.7,0C7.5,0,0,7.5,0,16.7C0,26,7.5,33.5,16.7,33.5c9.2,0,16.7-7.5,16.7-16.7l0,0
				C33.5,7.5,26,0,16.7,0z"/>
		</g>
	</g>
	<path id="Path_50" class="st0" d="M19.3,68.9c0,0-6.6-13.6-17.4-9.4S1.4,86.3-6.4,89.8c4.3-0.2,11.8,0,12.6-11.1s7-6,7-6L19.3,68.9
		z"/>
</g>
</svg>
